<svg width="688" height="365" viewBox="0 0 688 365" fill="none" xmlns="http://www.w3.org/2000/svg">
<path d="M221 350.01V347.85L221.04 344.33L221.08 342.69L221.22 340.19L221.32 339.06L221.61 337.55L221.79 336.91L222.29 336.36L222.57 336.21L223.32 336.6L223.73 336.91L224.78 338.22L225.35 338.98L226.75 341.17L229.29 345.42L230 346.65L231.4 348.92L232.08 350L233.31 351.84L233.88 352.68L234.79 353.87L235.65 354.72L235.73 354.75L235.99 354.6L236.13 354.5L236.51 354.12L236.92 353.68L238.01 352.18L238.59 351.35L239.94 349.23L242.08 345.55L242.8 344.24L244.23 341.84L244.93 340.7L246.19 338.81L246.79 337.94L247.75 336.75L247.96 336.51L248.3 336.19L248.68 336H248.93L249.32 336.65L249.41 336.88L249.55 337.55L249.62 337.92L249.73 338.91L249.78 339.44L249.85 340.78L249.89 341.5L249.94 343.23L249.96 344.15L249.99 346.31L250 350.08V351.44L249.99 353.79L249.98 354.91L249.94 356.83L249.92 357.74L249.86 359.25L249.82 359.96L249.74 361.1L249.69 361.62L249.57 362.42L249.5 362.78L249.35 363.27L248.75 363.75L248.54 363.68L248.17 362.95L247.99 362.48L247.68 360.92L247.54 360.04L247.3 357.65L247 353.11L246.5 342.87L241.55 351.45L240.87 352.63L239.54 354.76L238.9 355.76L237.74 357.41L237.2 358.16L236.35 359.14L235.55 359.68L235.4 359.64L234.75 358.89L234.37 358.42L233.34 356.97L232.79 356.18L231.52 354.23L229.5 350.94L224.5 342.55L224 352.94L223.92 354.71L223.7 357.57L223.59 358.89L223.32 360.89L223.17 361.78L222.83 362.94L222.25 363.75L222.01 363.83L221.65 363.27L221.57 363.06L221.43 362.41L221.37 362.05L221.26 361.08L221.22 360.55L221.14 359.22L221.11 358.51L221.06 356.79L221.04 355.88L221.01 353.74L221 352.61M281.37 361.68L281.41 361.52L281.59 360.98L281.71 360.67L282.03 359.85L282.38 358.98L283.4 356.59L283.95 355.32L285.28 352.35L287.47 347.61L287.99 346.51L288.91 344.59L289.36 343.67L290.16 342.09L290.54 341.33L291.23 340.07L291.56 339.48L292.14 338.51L292.42 338.06L292.92 337.37L293.16 337.06L293.58 336.63L294.64 336.18L294.73 336.19L295.04 336.49L295.21 336.68L295.64 337.28L296.11 337.95L297.34 340.02L297.99 341.16L299.48 343.91L300.23 345.34L301.8 348.43L302.58 349.98L304.06 353.08L304.78 354.59L306.01 357.35L306.57 358.66L307.38 360.74L307.55 361.21L307.78 361.95L307.94 362.75L307.97 363.37L307.65 363.93L307.44 364.1L306.78 363.84L306.42 363.62L305.57 362.64L304.3 360.5L302.63 357H294.5H286.37L284.7 360.5L284.23 361.49L283.26 362.87L282.78 363.44L281.98 363.93L281.81 364L281.52 363.94L281.4 363.88L281.24 363.58L281.18 363.4L281.17 362.83L281.19 362.52M300 352.62V352.3L299.78 351.33L299.64 350.81L299.19 349.54L298.7 348.22L297.35 345.31L297 344.61L296.31 343.33L295.98 342.73L295.35 341.74L295.06 341.3L294.57 340.75L294.08 340.6L293.89 340.81L293.4 341.61L293.13 342.06L292.53 343.23L291.91 344.47L290.63 347.42L290.33 348.16L289.79 349.55L289.53 350.23L289.13 351.41L288.95 351.96L288.76 352.78V353.42L288.84 353.5L289.4 353.65L289.74 353.72L290.73 353.83L294.67 354H295.63L297.13 353.93L297.81 353.87L298.78 353.69L299.21 353.58L299.71 353.26L299.91 353.08M339.75 362.43L338.99 362.02L337.81 361.09L337.56 360.87L337.22 360.46L337 359.97V359.64L337.16 359.26L337.29 359.11L337.91 359.1L338.31 359.15L339.68 359.55L340.09 359.68L341.09 360.02L342.9 360.66L343.93 361.02L345.46 361.49L346.16 361.67L347.28 361.79L347.81 361.81L348.82 361.59L350.53 360.89L351.11 360.62L351.97 360.07L352.36 359.78L352.88 359.15L353.11 358.81L353.36 358L353.5 356.49V355.79L353.34 354.8L353.21 354.35L352.57 353.65L352.15 353.32L350.71 352.67L350.29 352.5L349.24 352.13L347.33 351.5L346.41 351.2L344.77 350.6L343.98 350.29L342.6 349.68L341.29 349.05L339.4 347.71L338.57 347.02L337.58 345.5L337 342.92V341.88L337.74 340.09L338.21 339.25L339.81 337.91L340.7 337.3L343.03 336.5L347.2 336H348.45L350.75 336.25L351.84 336.41L353.6 336.91L354.38 337.18L355.34 337.83L355.52 338L355.67 338.35L355.57 338.89L355.5 338.99L354.99 339.11L354.68 339.15L353.77 339.14L350.14 338.66L349.1 338.45L347.52 338.21L346.79 338.12L345.63 338.15L345.08 338.2L344.11 338.52L342.6 339.35L341.97 339.76L341.06 340.61L340.66 341.04L340.21 341.91L340.04 342.35L340.02 343.23L340.07 343.66L340.49 344.52L340.75 344.94L341.59 345.76L342.06 346.16L343.3 346.92L343.98 347.29L345.61 347.98L348.5 348.89L349.99 349.29L352.35 350.2L353.42 350.67L354.99 351.78L355.68 352.37L356.51 353.73L357 356.1V357.29L356.3 359.35L355.85 360.31L354.33 361.84L353.48 362.52L351.27 363.42L347.3 363.96L345.98 363.95L343.1 363.49L342.42 363.35L341.2 363.01L340.62 362.83M389.75 362.43L388.99 362.02L387.81 361.09L387.56 360.87L387.22 360.46L387 359.97V359.64L387.16 359.26L387.29 359.11L387.91 359.1L388.31 359.15L389.68 359.55L390.09 359.68L391.09 360.02L392.9 360.66L393.93 361.02L395.46 361.49L396.16 361.67L397.28 361.79L397.81 361.81L398.82 361.59L400.53 360.89L401.11 360.62L401.97 360.07L402.36 359.78L402.88 359.15L403.11 358.81L403.36 358L403.5 356.49V355.79L403.34 354.8L403.21 354.35L402.57 353.65L402.15 353.32L400.71 352.67L400.29 352.5L399.24 352.13L397.33 351.5L396.41 351.2L394.77 350.6L393.98 350.29L392.6 349.68L391.29 349.05L389.4 347.71L388.57 347.02L387.58 345.5L387 342.92V341.88L387.74 340.09L388.21 339.25L389.81 337.91L390.7 337.3L393.03 336.5L397.2 336H398.47L400.77 336.25L401.86 336.41L403.61 336.91L404.39 337.19L405.34 337.85L405.51 338.02L405.66 338.37L405.55 338.92L405.48 339.03L405.04 339.15L404.78 339.19L404.02 339.18L401.04 338.67L399.91 338.36L397.74 338.17L396.69 338.14L394.77 338.46L393.86 338.69L392.33 339.51L390.61 341.25L390.17 341.95L390.04 343.25L390.1 343.89L391.01 345.11L391.31 345.41L392.1 346L392.53 346.3L393.6 346.88L394.17 347.18L395.52 347.76L397.87 348.65L398.83 348.98L400.48 349.59L401.25 349.89L402.55 350.44L403.16 350.71L404.15 351.24L404.61 351.5L405.33 352.04L405.99 352.58L406.66 353.82L407 356.17V357.34L406.3 359.37L405.84 360.33L404.32 361.84L403.47 362.53L401.25 363.42L397.3 363.96L395.98 363.95L393.1 363.49L392.42 363.35L391.2 363.01L390.62 362.83M435.39 362.34L435.44 362.2L435.63 361.71L435.74 361.43L436.05 360.65L436.4 359.82L437.41 357.48L437.95 356.22L439.26 353.26L441.4 348.47L441.88 347.42L442.75 345.54L443.18 344.63L443.96 343.04L444.33 342.28L445.02 340.95L445.36 340.33L445.97 339.27L446.56 338.28L447.51 337.04L448.66 336.22L449.02 336.17L449.82 336.65L450.03 336.83L450.5 337.39L450.75 337.71L451.3 338.56L451.58 339.03L452.24 340.22L452.58 340.87L453.37 342.43L453.78 343.27L454.72 345.25L456.32 348.72L457.12 350.48L458.59 353.76L459.28 355.34L460.44 358.03L460.7 358.66L461.15 359.74L461.36 360.25L461.69 361.09L461.84 361.47L462.03 362.02L462.15 362.48V363.1L461.78 363.68L461.55 363.87L460.87 363.66L460.51 363.47L459.71 362.57L458.59 360.57L457.1 357H450.63H448.85L445.67 356.85L444.97 356.81L443.86 356.69L442.83 356.49L442.63 356.42L442.14 356.55L441.89 356.66L441.32 357.14L441.02 357.42L440.41 358.2L439.5 359.68L438.96 360.68L437.79 362.25L437.22 362.94L436.24 363.74L436.02 363.89L435.66 364L435.5 364.02L435.29 363.87L435.21 363.76L435.18 363.33L435.2 363.07M454.4 353.16L454.47 353.05L454.36 352.33L454.26 351.91L453.86 350.69L453.63 350.03L452.99 348.47L451.83 345.91L448.75 339.5L445.88 345.5L445.48 346.32L444.76 347.93L444.42 348.71L443.85 350.1L443.59 350.76L443.23 351.79L443 352.75V352.93L443.46 353.24L443.75 353.38L444.66 353.61L445.66 353.83L448.38 354.02L449.75 354.07L452.25 353.89L452.81 353.82L453.66 353.61L454.03 353.49M497.98 362.18L497.42 361.89L496.33 361.09L495.8 360.67L494.79 359.63L492.14 355.67L491.75 354.89L491.15 353.41L490.88 352.68L490.53 351.29L490.25 349.91L490.44 347.34L490.66 346.06L491.9 343.58L492.28 342.96L493.23 341.71L494.97 339.8L495.84 338.93L497.18 337.73L497.82 337.21L499.04 336.59L499.67 336.33L501.2 336.1L504.34 336H505.89L508.62 336.28L509.91 336.46L512 337.06L512.94 337.4L514.21 338.25L514.46 338.48L514.8 338.98L515 339.77V340.26L514.58 340.68L513.25 340.47L511.84 339.87L509.44 339.06L508.29 338.72L506.28 338.41L505.3 338.32L503.5 338.49L500.83 339.29L499.68 339.77L497.74 341.11L496.85 341.84L495.46 343.6L494.84 344.52L494.06 346.6L493.64 350.01L493.67 351.27L494.2 353.51L494.55 354.59L495.69 356.44L496.35 357.32L498.11 358.78L501.43 360.53L502.39 360.89L503.83 361.36L504.49 361.54L505.6 361.65H506.14L507.26 361.4L509.35 360.63L510.21 360.27L511.37 359.68L511.88 359.37L512.47 358.66L512.71 358.26L512.91 357.11L513 354.55V353.71L513.08 352.41L513.13 351.83L513.33 351.01L513.45 350.65L513.8 350.24L514.5 350H514.78L515.21 350.25L515.41 350.42L515.68 351.09L515.79 351.48L515.93 352.63L516 355.01V356.16L515.91 357.79L515.84 358.52L515.49 359.55L515.27 360.03L514.51 360.8L512.75 362.01L511.73 362.63L509.37 363.42L508.15 363.74L505.55 363.92L504.25 363.93L501.64 363.51L500.36 363.22M549 350.04V336H558.58H559.49L561.06 336.02L561.82 336.03L563.11 336.06L564.33 336.11L565.99 336.27L566.71 336.37L567.47 336.66L567.75 337.25L567.69 337.46L567.08 337.81L566.7 337.98L565.48 338.26L564.8 338.39L562.99 338.59L559.62 338.79L551.89 339.09L552.2 343.79L552.5 348.5L559.78 348.79L560.95 348.84L562.81 349L563.66 349.08L564.9 349.3L565.45 349.41L566.09 349.66L566.33 349.78L566.38 350.04L566.33 350.16L565.79 350.4L565.45 350.52L564.33 350.71L563.7 350.8L562.03 350.92L558.89 351H551.9L552.2 356.25L552.5 361.5H560.75H562.21L564.5 361.58L565.55 361.64L567.04 361.81L567.68 361.9L568.38 362.13L568.64 362.25L568.58 362.51L568.46 362.64L567.68 362.91L567.19 363.04L565.7 363.28L564.86 363.39L562.68 363.59L558.67 363.79L549 364.07V350.04ZM67.91 353.05L64.76 352.38L58.6 350.62L55.55 349.67L49.64 347.38L46.72 346.18L41.14 343.4L38.39 341.95L33.2 338.74L30.66 337.08L25.93 333.47L23.62 331.62L19.43 327.66L17.4 325.65L13.81 321.39L9.18001 314.71L7.65001 312.16L5.27002 307.28L4.19002 304.85L2.63002 299.98L1.94002 297.51L1.13002 292.36L0.640015 284V281.97L0.840012 278.14L0.980011 276.26L1.48001 272.72L1.77002 270.97L2.57002 267.67L3.01001 266.05L4.14001 262.96L4.75002 261.44L6.21002 258.52L6.99002 257.08L8.80002 254.31L9.75002 252.94L11.93 250.27L15.62 246.34L17.46 244.54L21.4 241.53L23.4 240.12L27.65 237.9L29.81 236.88L34.33 235.44L36.63 234.82L41.41 234.17L43.82 233.94L48.83 234.08L51.36 234.25L56.56 235.18L59.19 235.75L64.56 237.48L72.79 240.97L73.83 241.49L75.65 242.41L76.52 242.86L78.04 243.7L79.5 244.52L81.83 246.12L82.94 246.95L85 248.89L85.52 249.41L86.62 250.59L88.41 252.63L89.31 253.67L90.89 255.63L91.64 256.59L92.96 258.43L94.22 260.24L96.03 263.68L96.84 265.4L97.88 268.96L98.78 274.82L98.86 275.86L98.9 277.54V278.31L98.79 279.47L98.72 279.98L98.48 280.62L98.35 280.88L98.02 281L97.84 280.99L97.44 280.59L97.23 280.32L96.77 279.41L96.54 278.88L96.06 277.45L95.34 274.71L94.72 271.96L92.84 266.85L92.32 265.61L91.16 263.28L90.55 262.13L89.23 260L88.55 258.97L87.08 257.07L86.33 256.16L84.74 254.53L83.94 253.75L82.25 252.42L79.62 250.79L78.83 250.38L77.03 249.7L76.1 249.38L74.08 248.89L72.03 248.44L67.53 248.12L65.27 248.06L60.75 248.5L54.5 250.06L53.34 250.5L51.09 251.6L49.97 252.19L47.83 253.58L46.77 254.31L44.75 255.97L43.76 256.83L41.88 258.73L40.96 259.71L39.25 261.85L38.41 262.94L36.88 265.28L36.13 266.48L34.8 269.01L33.03 273L32.05 275.54L30.62 280.62L29.99 283.15L29.27 288.19L29 290.7L28.99 295.66L29.07 298.13L29.76 302.97L30.2 305.37L31.58 310.06L32.36 312.38L34.43 316.87L35.54 319.09L38.29 323.35L43.17 329.44L44.88 331.3L48.62 334.55L50.55 336.09L54.69 338.68L56.8 339.89L61.29 341.83L63.56 342.71L68.32 343.96L70.73 344.51L75.71 345.08L78.22 345.27L83.35 345.14L85.93 344.98L91.16 344.13L99.05 342.04L102.31 340.94L108.15 338.49L110.98 337.2L116.15 334.23L118.68 332.67L123.47 329.02L130.5 322.6L132.49 320.58L135.92 316.49L137.55 314.44L140.26 310.27L141.52 308.18L143.5 303.97L144.4 301.86L145.64 297.63L146.16 295.51L146.66 291.27L146.81 289.15L146.56 284.93L146.34 282.82L145.33 278.64L142.97 272.43L142.3 271.03L140.67 268.31L139.81 266.96L137.77 264.31L136.7 263L134.2 260.4L132.89 259.1L129.9 256.51L128.34 255.22L124.82 252.61L122.98 251.3L118.89 248.64L116.76 247.31L112.05 244.56L104.26 240.32L102.78 239.55L99.92 238L98.54 237.23L96.07 235.83L94.92 235.16L93.13 234.06L92.73 233.81L92.12 233.4L91.5 232.93L91.23 232.69L90.28 232.05L89.76 231.72L88.45 230.97L83.94 228.72L83.18 228.39L81.35 227.4L80.41 226.87L78.42 225.62L77.42 224.97L75.49 223.6L72.94 221.59L71.89 220.69L69.99 219.05L69.07 218.25L67.41 216.81L65.79 215.41L63.19 213.1L61.98 212.02L60.04 210.2L59.15 209.34L57.72 207.83L57.06 207.1L55.98 205.73L55.47 205.04L54.57 203.61L54.13 202.88L53.25 201.22L51.77 198.28L51.26 197.25L50.41 195.49L50.01 194.66L49.36 193.21L48.76 191.81L48.04 189.35L47.9 188.72L47.68 187.38L47.58 186.68L47.44 185.1L47.38 184.26L47.28 182.31L47.16 178.81L47.13 177.7L47.09 175.74L47.07 174.79L47.08 173.1L47.1 171.46L47.29 168.75L47.42 167.45L47.87 165.04L48.89 161.22L49.48 159.31L50.89 155.69L51.63 153.91L53.35 150.52L54.25 148.86L56.31 145.69L57.38 144.13L59.8 141.14L61.06 139.67L63.86 136.86L65.31 135.47L68.51 132.8L70.16 131.48L73.78 128.92L79.71 125.19L81.69 124.04L85.96 121.96L88.14 120.97L92.78 119.22L95.13 118.39L100.06 116.99L102.56 116.33L107.74 115.28L110.35 114.8L115.71 114.11L118.41 113.81L123.9 113.5L126.66 113.39L132.21 113.46L140.56 114.01L141.95 114.15L144.4 114.41L145.58 114.55L147.75 114.83L149.89 115.13L154.18 115.93L155.31 116.16L157.84 116.73L159.16 117.03L162.19 117.78L163.79 118.18L167.53 119.14L174.15 120.86L175.8 121.29L178.58 121.98L179.9 122.3L182.14 122.75L183.21 122.95L185.05 123.15L185.93 123.21L187.51 123.15L188.27 123.09L189.73 122.75L190.46 122.55L191.94 121.92L192.69 121.57L194.33 120.65L197.14 118.91L197.81 118.48L199.09 117.72L199.7 117.36L200.76 116.81L201.25 116.56L201.97 116.27L202.54 116.2L202.59 116.26L202.64 116.5L202.65 116.65L202.55 117.2L202.48 117.53L202.19 118.56L202.02 119.15L201.48 120.8L201.18 121.73L200.34 124.18L200.11 124.85L199.59 126.37L199.32 127.16L198.7 128.93L198.38 129.85L197.66 131.89L197.29 132.95L196.47 135.29L196.04 136.5L195.11 139.15L193.57 143.5L193.25 144.39L192.55 146.4L192.19 147.43L191.42 149.65L190.64 151.92L188.98 156.79L188.14 159.24L186.53 164.04L184.38 170.5L183.75 172.42L182.55 175.99L181.97 177.7L180.95 180.6L180.71 181.26L180.29 182.41L180.09 182.96L179.75 183.83L179.6 184.23L179.36 184.78L179.14 185.21L178.96 185.4L178.26 185.45L177.07 185.04L176.77 184.86L176.39 184.23L176.23 183.85L176.14 182.54L176.13 182.16L176.17 181.19L176.2 180.68L176.32 179.42L176.38 178.75L176.56 177.15L176.91 174.31L177.1 172.85L177.35 170.13L177.46 168.8L177.56 166.29L177.61 163.82L177.17 159.14L176.85 156.79L175.61 151.88L175.25 150.61L174.36 147.91L172.77 143.55L172.03 141.66L170.38 138.27L169.52 136.64L167.58 133.78L166.58 132.41L164.33 130.06L163.16 128.94L160.58 127.08L159.24 126.21L156.28 124.81L154.76 124.17L151.4 123.23L149.67 122.82L145.89 122.31L139.71 122.01H138.26L135.56 122.11L134.24 122.17L131.78 122.39L129.37 122.65L125.12 123.58L123.07 124.12L119.33 125.69L114 128.82L112.52 129.86L109.77 132.15L108.44 133.33L105.99 135.87L104.81 137.17L102.69 139.92L101.68 141.31L99.91 144.22L99.08 145.69L97.69 148.72L97.04 150.25L96.06 153.35L95.61 154.91L95.05 158.06L94.71 162.76V164.78L95.15 168.53L95.45 170.36L96.59 173.83L97.25 175.55L99.21 178.87L100.3 180.53L103.2 183.84L103.99 184.67L105.77 186.35L106.69 187.2L108.75 188.92L109.81 189.79L112.16 191.57L113.37 192.46L116.02 194.31L117.39 195.25L120.37 197.19L121.9 198.17L125.21 200.21L126.91 201.25L130.58 203.41L136.5 206.81L138.26 207.81L141.54 209.69L143.14 210.61L146.12 212.36L147.57 213.22L150.26 214.85L151.57 215.66L153.99 217.19L156.35 218.71L160.37 221.54L162.28 222.93L165.51 225.61L167.04 226.95L169.66 229.63L170.9 230.99L173.07 233.82L174.11 235.26L175.99 238.39L178.67 243.55L179.49 245.28L180.9 248.94L181.56 250.81L182.63 254.68L183.12 256.63L183.85 260.63L184.18 262.63L184.56 266.67L184.71 268.69L184.75 272.69L184.72 274.67L184.4 278.55L184.2 280.47L183.52 284.14L182.08 289.33L181.11 292.13L178.75 297.57L177.51 300.26L174.63 305.45L173.13 308.02L169.75 312.94L168.01 315.36L164.17 319.97L162.2 322.23L157.93 326.5L155.74 328.58L151.06 332.47L148.67 334.37L143.62 337.85L135.64 342.57L132.97 343.99L127.5 346.47L124.75 347.65L119.14 349.65L116.33 350.59L110.63 352.1L107.78 352.8L102.03 353.81L99.15 354.26L93.39 354.77L90.51 354.96L84.78 354.97L81.93 354.91L76.27 354.4L73.45 354.08M593.5 318.42L590.66 317.73L585.45 316.17L582.91 315.36L578.28 313.54L576.03 312.59L571.94 310.47L569.95 309.37L566.35 306.93L564.6 305.66L561.45 302.85L559.93 301.4L557.18 298.2L555.85 296.55L553.47 292.93L550.25 286.98L549.48 285.35L548.14 282.35L547.51 280.88L546.45 278.15L545.95 276.81L545.14 274.25L544.76 272.98L544.18 270.49L543.66 267.99L543.21 262.77L543.14 261.41L543.12 258.51L543.27 253.78L543.37 251.61L543.8 247.33L544.04 245.2L544.75 241.03L545.14 238.95L546.12 234.89L546.64 232.88L547.89 228.96L548.55 227.02L550.06 223.25L550.84 221.39L552.61 217.8L553.52 216.03L555.54 212.63L558.83 207.77L559.5 206.88L561.12 205.03L561.97 204.1L563.92 202.22L565.93 200.34L570.63 196.73L573.04 194.98L578.06 191.94L579.31 191.24L581.76 190.03L585.3 188.54L586.16 188.23L587.67 187.7L588.4 187.45L589.7 187.06L590.98 186.69L593.39 186.27L594.65 186.11L597.63 186.03L598.46 186.02L600.36 186.06L603.69 186.16L604.89 186.2L606.96 186.29L607.94 186.34L609.64 186.46L611.27 186.59L613.81 187.01L615.03 187.25L617.3 188.01L621.2 189.7L623.53 190.79L627.64 193.42L629.61 194.8L632.99 197.96L634.58 199.6L637.2 203.22L638.41 205.08L640.24 209.09L641.05 211.14L642.06 215.48L642.46 217.68L642.63 222.27L642.6 224.59L641.9 229.38L639.83 236.69L639.55 237.44L638.74 239.04L638.3 239.86L637.19 241.57L636.02 243.29L633.01 246.79L631.43 248.51L627.93 251.67L622.59 255.5L621.3 256.26L618.26 257.77L616.67 258.52L613.16 259.99L611.36 260.71L607.56 262.08L605.63 262.75L601.71 263.98L599.74 264.57L595.87 265.6L593.95 266.08L590.3 266.86L588.51 267.21L585.25 267.68L581 267.99L580.21 268L578.86 268.06L578.23 268.1L577.18 268.24L576.69 268.32L575.91 268.57L575.56 268.71L575.02 269.08L574.78 269.28L574.47 269.8L574.34 270.08L574.22 270.77L574.18 271.14L574.22 272.02L574.45 273.58L574.89 275.92L576.16 280.14L576.88 282.19L578.79 286L579.84 287.88L582.5 291.49L587.47 296.91L588.75 298.15L591.04 300.25L592.15 301.24L594.21 302.89L595.22 303.67L597.17 304.92L598.14 305.5L600.1 306.41L601.09 306.83L603.17 307.44L604.24 307.71L606.57 308.08L607.78 308.24L610.49 308.41L615.09 308.5H625.69L635.51 303.63L636.55 303.11L638.39 302.15L639.29 301.69L640.89 300.78L642.46 299.88L645.21 297.97L646.58 296.95L649.43 294.47L650.17 293.79L651.8 292.24L654.51 289.57L655.81 288.27L658.15 285.82L659.28 284.62L661.33 282.31L663.32 280.01L666.65 275.5L668.24 273.2L671.1 268.2L671.8 266.9L673.2 264.09L675.33 259.5L676.52 256.82L678.42 251.76L679.3 249.28L680.57 244.63L681.12 242.36L681.75 238.17L681.99 236.13L681.98 232.44L681.9 230.65L681.27 227.49L680.87 225.98L679.61 223.39L678.89 222.18L677 220.2L673.45 217.98L672.79 217.7L671.68 217.11L671.17 216.82L670.35 216.24L669.98 215.96L669.47 215.41L669.25 215.14L669.04 214.64L668.98 214.4L669.09 213.98L669.18 213.78L669.6 213.46L669.86 213.31L670.61 213.12L672.11 213H673.19L675.23 213.36L676.23 213.6L678.09 214.41L679 214.87L680.66 216.1L681.46 216.76L682.9 218.38L683.59 219.23L684.77 221.21L685.33 222.24L686.23 224.53L686.65 225.72L687.25 228.31L687.78 232.5L687.91 234.57L687.77 238.78L687.63 240.9L686.94 245.21L686.53 247.38L685.28 251.81L684.59 254.04L682.78 258.6L681.8 260.9L679.42 265.61L678.16 267.98L675.21 272.86L673.66 275.32L670.12 280.37L664.16 288.16L662.84 289.8L660.05 292.91L658.63 294.44L655.65 297.34L654.14 298.76L651 301.42L649.42 302.72L646.15 305.12L644.5 306.29L641.13 308.42L639.44 309.45L635.99 311.28L634.26 312.15L630.77 313.67L625.51 315.56L624.53 315.86L622.11 316.43L620.83 316.71L617.95 317.21L614.99 317.69L608.52 318.37L606.93 318.52L603.85 318.71L602.34 318.79L599.59 318.85L598.27 318.86L596.04 318.76L595.01 318.69M595.13 260.32L597.31 259.51L601.26 257.38L603.17 256.24L606.54 253.47L608.15 252.01L610.91 248.67L612.21 246.94L614.33 243.08L615.31 241.09L616.76 236.78L617.4 234.58L618.15 229.87L618.44 227.48L618.46 222.44L617.65 214.57L617.4 213.1L616.85 210.45L616.56 209.17L615.94 206.87L615.62 205.76L614.9 203.79L614.53 202.84L613.71 201.16L613.29 200.35L612.35 198.93L611.86 198.25L610.79 197.07L606.98 194.24L605.62 193.51L602.52 192.64L600.94 192.29L597.68 192.17L596.07 192.21L593.05 192.84L592.32 193.05L590.99 193.59L589.21 194.62L588.69 194.99L587.67 196L587.16 196.54L586.15 197.88L585.65 198.58L584.66 200.22L584.17 201.07L583.21 202.98L582.26 204.95L580.47 209.59L579.6 212.02L578.03 217.4L577.27 220.16L575.97 226.06L575.36 229.05L574.39 235.25L573.95 238.36L573.37 244.64L573.01 253.9L573 264.29L580.38 263.67L581.41 263.58L583.84 263.21L585.1 263L587.76 262.43L589.09 262.13L591.68 261.43L592.93 261.08M250.32 316.6L248.59 316.24L245.25 315.22L243.6 314.66L240.43 313.28L238.87 312.54L235.89 310.79L234.43 309.88L231.67 307.8L230.33 306.72L227.81 304.32L226.59 303.09L224.34 300.4L223.25 299.01L221.3 296.04L218.72 291.29L215.5 284.5L214.9 238.5L214.86 235.34L214.78 229.25L214.74 226.26L214.66 220.62L214.62 217.86L214.55 212.78L214.51 210.33L214.44 205.94L214.4 203.84L214.34 200.27L214.31 198.6L214.26 195.98L214.25 195.39L214.23 194.4L214.22 193.94L214.2 193.24L214.19 192.92L214.17 192.51L214.15 192.25L214.13 192.22L213.34 192.15L212.84 192.12L211.25 192.07L210.37 192.05L208.18 192.02L204.47 192H203.5L201.83 191.98L201.04 191.97L199.69 191.93L199.06 191.91L197.99 191.84L197.5 191.8L196.69 191.69L195.93 191.58L195.04 191.21L194.34 190.43L194.09 189.79L194.18 188.82L194.26 188.6L194.63 188.22L194.85 188.04L195.51 187.74L195.88 187.59L196.88 187.33L197.42 187.21L198.79 187L199.53 186.89L201.32 186.7L204.5 186.42L205.74 186.32L208.05 186.06L209.17 185.92L211.07 185.6L211.95 185.43L213.24 185.09L214.23 184.61L214.29 184.53L214.38 184.12L214.43 183.88L214.52 183.17L214.61 182.4L214.76 180.09L214.83 178.84L214.92 175.81L214.98 170.79L215 158.08L222.27 150.29L223.27 149.22L225.44 146.77L226.53 145.52L228.69 142.95L229.75 141.68L231.65 139.29L233.92 136.25L234.52 135.39L235.72 133.82L236.31 133.08L237.4 131.84L237.92 131.27L238.76 130.49L239.63 130H239.76L240 130.27L240.11 130.46L240.31 131.19L240.4 131.61L240.56 132.88L240.63 133.58L240.76 135.48L240.82 136.51L240.92 139.13L240.96 140.54L241.04 143.97L241.08 145.79L241.15 150.13L241.23 157.75L241.5 185.5L251 185.75L252.42 185.79L254.86 185.87L256.02 185.92L257.98 186.03L258.9 186.09L260.42 186.24L261.13 186.32L262.26 186.51L262.78 186.61L263.56 186.85L263.92 186.98L264.41 187.29L265 188.48V188.81L264.82 189.38L264.7 189.65L264.26 190.12L264.01 190.35L263.29 190.73L262.9 190.91L261.88 191.21L261.33 191.35L259.98 191.57L259.26 191.67L257.57 191.81L256.67 191.88L254.61 191.95L251.07 192H241L241.03 229.75L241.04 232.4L241.05 237.28L241.06 239.66L241.09 244.04L241.11 246.17L241.15 250.09L241.18 251.99L241.25 255.48L241.29 257.17L241.39 260.27L241.44 261.78L241.57 264.52L241.64 265.85L241.8 268.29L241.89 269.47L242.09 271.63L242.3 273.72L242.86 277.26L243.16 278.94L243.92 281.87L244.33 283.29L245.32 285.93L247.12 289.89L247.98 291.63L250.29 295.2L251.52 296.96L254.33 300.27L255.76 301.86L258.71 304.55L259.45 305.16L260.89 306.22L262.96 307.48L264.12 308.08L267.03 308.94L268.57 309.3L272.16 309.69L274.03 309.83L278.2 309.74L285 309.06L286 308.91L287.77 308.69L288.61 308.59L290.04 308.46L290.72 308.41L291.82 308.37H292.33L293.09 308.42L293.43 308.46L293.85 308.61L294.02 308.7L294.09 308.94L294.08 309.07L293.81 309.4L293 310L292.8 310.13L291.68 310.6L291.03 310.87L289.18 311.57L288.18 311.93L285.84 312.76L282.02 314.07L279.26 314.99L273.77 316.3L271.03 316.86L265.66 317.47L262.99 317.68L257.8 317.57L255.24 317.43M396.5 317.23L395.66 317.17L394.24 317.01L393.57 316.93L392.51 316.72L392.03 316.61L391.33 316.35L391.02 316.21L390.68 315.9L390.56 315.74L390.59 315.38L390.64 315.2L391.03 314.8L391.27 314.59L392.03 314.14L393.57 313.42L395.22 312.74L397.96 311.26L399.25 310.49L401.32 308.76L402.28 307.86L403.77 305.81L405.45 302.28L405.62 301.77L405.93 300.55L406.07 299.88L406.32 298.19L406.44 297.26L406.64 294.89L406.74 293.6L406.91 290.34L406.95 289.46L407.03 287.51L407.06 286.49L407.13 284.24L407.17 283.08L407.23 280.51L407.27 279.18L407.33 276.27L407.36 274.77L407.42 271.49L407.45 269.8L407.51 266.13L407.54 264.24L407.61 260.14L407.7 253.5L407.78 247.45L407.87 235.86L407.89 233.06L407.91 227.74V225.15L407.9 220.37V218.06L407.86 213.95L407.85 211.99L407.79 208.69L407.76 207.15L407.69 204.8L407.67 204.28L407.62 203.44L407.55 202.5L407.46 201.68L407.3 200.29L407.21 199.64L407.03 198.53L406.84 197.48L406.26 195.91L405.92 195.16L404.85 193.77L404.54 193.41L403.78 192.62L402.4 191.27L401.8 190.68L400.69 189.58L400.17 189.05L399.29 188.13L398.89 187.69L398.35 187.05L398 186.52V186.48L398.27 186.41L398.45 186.38L399.06 186.32L399.4 186.29L400.3 186.23L400.78 186.2L401.94 186.15L403.16 186.1L406.21 186.04L411.41 186H424.83L431.16 193.86L431.6 194.4L432.69 195.74L433.27 196.45L434.61 198.09L435.31 198.94L436.84 200.81L437.63 201.77L439.31 203.8L450 216.67L455.06 222.72L465.16 234.92L467.64 237.92L472.44 243.78L474.81 246.67L479.29 252.17L481.48 254.87L485.53 259.88L487.49 262.31L490.99 266.69L491.82 267.73L493.36 269.68L494.11 270.63L495.47 272.37L496.13 273.21L497.3 274.72L498.82 276.71L499.46 277.56L500.7 279.12L501.31 279.87L502.38 281.11L502.88 281.67L503.66 282.45L504.37 282.96H504.4L504.46 282.76L504.49 282.63L504.54 282.16L504.59 281.64L504.68 279.86L504.72 278.86L504.79 276.2L504.82 274.77L504.87 271.33L504.89 269.52L504.91 265.4L504.92 263.26L504.91 258.56V256.14L504.88 250.96L504.81 242.75L504.79 240.37L504.74 236.02L504.71 233.91L504.67 230.06L504.64 228.2L504.6 224.84L504.57 223.21L504.52 220.28L504.5 218.87L504.44 216.34L504.42 215.13L504.35 212.96L504.32 211.93L504.25 210.09L504.22 209.21L504.14 207.67L504.06 206.19L503.85 203.95L503.74 202.93L503.46 201.38L503.32 200.66L502.96 199.5L502.3 197.87L501.89 196.96L501.05 195.48L500.62 194.79L499.6 193.62L499.06 193.06L497.7 192.03L495.11 190.46L494.41 190.08L493.13 189.32L492.52 188.94L491.5 188.25L491.04 187.92L490.4 187.39L490 186.84V186.78L490.49 186.67L490.81 186.62L491.89 186.51L492.5 186.46L494.11 186.37L494.98 186.33L497.05 186.25L498.14 186.21L500.61 186.14L501.88 186.11L504.68 186.07L514 186H517.3L523.32 186.07L524.75 186.09L527.39 186.14L528.67 186.17L530.95 186.24L532.04 186.28L533.89 186.37L534.75 186.41L536.11 186.51L536.72 186.56L537.51 186.67L538 186.83V186.95L537.67 187.42L537.47 187.68L536.79 188.39L533.88 190.98L533.31 191.43L532.11 192.62L531.51 193.25L530.35 194.67L529.78 195.38L528.78 196.84L527.63 198.89L527.37 199.46L526.94 200.54L526.74 201.12L526.41 202.56L526.26 203.36L526.02 205.58L525.97 206.21L525.87 207.68L525.83 208.45L525.75 210.27L525.71 211.22L525.64 213.44L525.61 214.6L525.55 217.27L525.52 218.67L525.48 221.84L525.45 223.5L525.41 227.24L525.39 229.18L525.36 233.53L525.34 235.79L525.31 240.82L525.29 243.42L525.26 249.17L525.2 258.67L525.19 261.36L525.16 266.38L525.14 268.84L525.11 273.41L525.09 275.64L525.06 279.77L525.04 281.79L525 285.5L524.98 287.31L524.94 290.62L524.91 292.23L524.87 295.16L524.84 296.58L524.79 299.15L524.76 300.39L524.7 302.62L524.67 303.69L524.61 305.59L524.58 306.5L524.51 308.09L524.47 308.85L524.39 310.16L524.35 310.77L524.27 311.81L524.18 312.78L523.98 314L523.64 314.89L523.41 315.08L522.6 315.43L522.14 315.6L520.95 315.9L519.69 316.19L516.43 316.6L514.75 316.76L511.24 316.85L506.55 316.56L505.48 316.4L503.86 315.98L503.09 315.72L501.67 314.79L501.31 314.51L500.52 313.79L500.12 313.4L499.21 312.42L498.74 311.89L497.64 310.59L495.71 308.25L495.28 307.72L494.22 306.42L493.65 305.73L492.35 304.13L491 302.48L487.8 298.57L477.5 286L475.85 283.99L472.05 279.35L470.11 276.98L466.09 272.05L464.09 269.61L460.33 264.99L459.43 263.88L457.75 261.83L455.5 259.05L453.21 256.23L448.87 250.9L446.74 248.3L442.79 243.47L440.86 241.12L437.33 236.85L435.63 234.79L432.59 231.14L431.13 229.4L428.62 226.43L427.44 225.04L425.52 222.82L424.64 221.81L423.36 220.4L423.08 220.09L422.66 219.66L422.22 219.25L421.78 218.91L420.56 218.37L418.81 218H418.6L418.24 218.13L418.07 218.24L417.81 218.75L417.68 219.06L417.49 220.14L417.4 220.77L417.27 222.64L417.24 223.16L417.19 224.39L417.16 225.04L417.13 226.53L417.11 227.32L417.08 229.11L417.07 230.04L417.05 232.14L417.04 233.24L417.03 235.69V236.96L417.02 239.78V241.24V244.45V249.75V254.12L417.1 262.76L417.12 264.88L417.18 268.95L417.22 270.95L417.3 274.71L417.34 276.54L417.43 279.88L417.48 281.48L417.59 284.29L417.65 285.61L417.76 287.76L417.95 290.15L418.13 291.87L418.61 294.93L418.88 296.4L419.55 299L419.92 300.25L420.81 302.44L421.29 303.49L422.43 305.3L423.03 306.17L424.45 307.64L425.19 308.35L426.92 309.53L427.82 310.09L429.87 311.02L433.36 312.17L434.45 312.47L436.12 313.21L436.86 313.6L437.73 314.43L438.06 314.84L438 315.58L437.93 315.76L437.58 316.07L436.75 316.45L436.64 316.48L436.06 316.55L435.72 316.59L434.74 316.66L434.2 316.7L432.86 316.77L432.15 316.8L430.52 316.87L428.82 316.93L424.76 317.05L422.66 317.11L418.14 317.21L415.86 317.25L411.33 317.31L409.1 317.34L405.01 317.36L404.03 317.37L402.24 317.36H401.37L399.84 317.34L399.11 317.33L397.9 317.3L397.34 317.28M315.44 313.1L314.25 312.78L312.12 312.17L311.1 311.87L309.24 311.28L307.44 310.68L304.37 309.43L302.87 308.77L299.99 307.19L295.29 304.2L293.61 303.06L290.39 300.5L288.8 299.18L285.79 296.31L284.31 294.83L281.54 291.69L280.19 290.09L277.7 286.72L276.49 285.02L274.33 281.49L273.29 279.72L271.48 276.08L270.62 274.25L269.2 270.55L267.56 265L267.15 263.23L266.58 259.49L266.35 257.59L266.14 253.62L266.07 251.61L266.21 247.49L266.32 245.41L266.78 241.2L267.06 239.09L267.85 234.86L268.29 232.75L269.39 228.57L269.99 226.5L271.4 222.44L273.86 216.56L274.4 215.41L275.69 213.05L276.36 211.87L277.89 209.49L279.47 207.11L283.2 202.48L285.12 200.21L289.29 196.09L295.69 190.89L296.46 190.35L298.25 189.28L299.18 188.75L301.24 187.71L303.36 186.67L308.1 184.77L310.51 183.87L315.43 182.39L322.39 180.89L325.1 180.49L330.59 180.33L333.34 180.36L338.84 181.02L341.58 181.45L346.98 182.89L349.66 183.7L354.85 185.87L357.41 187.04L362.29 189.88L364.68 191.38L369.14 194.84L371.31 196.65L375.24 200.7L380.43 207.37L382.04 209.8L384.6 214.34L385.78 216.6L387.59 221.15L388.42 223.48L389.67 228.51L389.95 229.82L390.43 232.61L391.07 237.11L391.44 240.21L391.67 246.26L391.69 249.25L391.22 255.06L390.9 257.93L389.73 263.47L389.07 266.21L387.22 271.45L386.22 274.04L383.71 278.97L382.37 281.4L379.19 285.99L377.52 288.24L373.7 292.47L367.24 298.37L365.17 300.05L360.89 303.03L358.74 304.46L354.35 306.93L352.14 308.1L347.69 310.04L345.46 310.95L340.99 312.35L338.76 312.99L334.33 313.84L332.13 314.19L327.8 314.47L325.66 314.54L321.48 314.24L319.41 314.01M343.23 306.57L344.79 305.82L347.84 303.78L349.35 302.68L352.18 300.01L353.56 298.61L356.04 295.45L359.24 290.29L360.18 288.5L361.83 284.57L362.62 282.55L363.99 278.25L364.63 276.06L365.68 271.48L366.17 269.17L366.9 264.43L367.22 262.05L367.62 257.25L367.77 254.86L367.82 250.1L367.79 247.74L367.47 243.13L366.57 236.5L365.95 233.21L364.6 227.23L363.9 224.34L362.35 219.09L361.55 216.56L359.78 212.02L358.87 209.82L356.85 205.93L355.81 204.05L353.52 200.75L352.34 199.17L349.75 196.42L348.42 195.12L345.5 192.87L340.74 190.03L339.44 189.38L337.32 188.46L336.3 188.05L334.36 187.54L333.36 187.32L331.11 187.11L326.81 187H324.58L320.25 187.4L319.24 187.52L317.53 187.84L315.61 188.39L314.65 188.79L312.82 189.86L311.92 190.44L310.21 191.87L309.37 192.64L307.78 194.44L306.99 195.39L305.5 197.57L304.77 198.71L303.38 201.29L302.7 202.62L301.42 205.59L300.79 207.12L299.59 210.49L297.9 216L297.37 217.9L296.63 221.13L296.31 222.75L295.92 226.31L295.83 227.28L295.71 229.48L295.66 230.64L295.59 233.33L295.56 234.76L295.53 238.1L295.51 244V245.96L295.53 249.4L295.54 251.05L295.58 253.94L295.61 255.32L295.69 257.73L295.74 258.89L295.86 260.91L295.92 261.88L296.09 263.6L296.18 264.43L296.4 265.92L297.29 269.97L298.08 272.84L300.11 278.26L301.2 280.92L303.75 285.85L305.09 288.25L308.07 292.6L309.6 294.69L312.92 298.35L314.62 300.09L318.18 302.98L319.99 304.32L323.7 306.33L325.58 307.23L329.36 308.28L330.3 308.48L332.19 308.68H335L336.24 308.58L339.27 307.92L340.02 307.73L341.42 307.28L342.1 307.05M269.1 198.75L270.41 196.15L273.32 191.01L274.82 188.48L277.98 183.67L279.58 181.33L282.81 177.09L287.57 171.66L289.31 169.87L292.8 166.59L294.55 165L298.1 162.09L299.88 160.68L303.54 158.11L305.39 156.87L309.23 154.59L311.18 153.49L315.25 151.49L317.33 150.51L321.71 148.74L323.94 147.87L328.69 146.29L336.28 144.09L338.22 143.58L341.71 142.73L343.42 142.32L346.64 141.66L348.25 141.35L351.49 140.85L353.13 140.62L356.64 140.27L358.46 140.11L362.52 139.88L364.64 139.78L369.52 139.64L370.8 139.62L373.56 139.57L374.98 139.56L378.04 139.53L379.61 139.52L383 139.51L388.5 139.5H390.52H394.19H395.97L399.25 139.51L400.84 139.52L403.79 139.55L405.24 139.56L407.96 139.61L410.63 139.66L415.62 139.87L418.11 139.99L423.24 140.38L424.56 140.49L427.33 140.75L428.75 140.89L431.79 141.22L433.35 141.39L436.73 141.79L438.47 142L442.28 142.47L444.24 142.72L448.55 143.28L450.78 143.57L455.68 144.22L458.21 144.56L463.79 145.31L473 146.55L476.22 146.98L482.19 147.78L485.1 148.17L490.48 148.88L493.1 149.23L497.96 149.86L500.32 150.16L504.7 150.71L506.84 150.98L510.8 151.45L512.73 151.68L516.33 152.09L518.09 152.29L521.37 152.64L522.98 152.8L526.02 153.09L528.99 153.37L534.42 153.76L537.08 153.94L542.19 154.18L544.75 154.28L550 154.39L558.5 154.46H560.96L565.16 154.45H567.15L570.56 154.41L572.17 154.38L574.95 154.29L576.28 154.24L578.61 154.1L580.85 153.94L584.73 153.39L585.7 153.23L587.71 152.83L591 152.12L594.42 151.34L600.77 149.38L603.86 148.34L609.52 145.85L612.26 144.54L617.2 141.54L623.75 136.5L624.61 135.72L626.18 134.39L626.92 133.78L628.16 132.85L628.73 132.45L629.51 132.02L630 132.04V132.2L629.71 132.99L629.52 133.44L628.91 134.69L628.57 135.35L627.73 136.89L626.28 139.37L625.28 141.02L623.13 144.12L622.03 145.65L619.68 148.5L618.47 149.89L615.91 152.5L614.59 153.77L611.8 156.12L610.38 157.27L607.36 159.38L605.82 160.4L602.56 162.27L600.91 163.17L597.4 164.8L595.62 165.59L591.86 166.98L589.95 167.64L585.93 168.8L583.89 169.35L579.6 170.28L577.42 170.72L572.85 171.42L570.54 171.74L565.68 172.21L563.22 172.42L558.07 172.67L555.46 172.77L550.02 172.8L547.25 172.79L541.49 172.6L532.5 172.09L530.03 171.9L525.37 171.53L523.07 171.34L518.57 170.92L516.31 170.71L511.71 170.22L509.37 169.96L504.4 169.36L501.85 169.04L496.27 168.31L493.37 167.92L486.91 167.02L485.23 166.78L481.66 166.26L479.83 166L475.95 165.43L473.97 165.14L469.75 164.51L463 163.51L460.08 163.07L454.67 162.27L452.03 161.88L447.12 161.16L444.73 160.81L440.27 160.18L438.1 159.88L434.05 159.32L432.07 159.06L428.36 158.58L426.55 158.34L423.13 157.93L419.78 157.54L413.72 156.93L410.76 156.65L405.15 156.25L402.37 156.07L396.78 155.84L393.95 155.74L387.95 155.63L378 155.56L376.18 155.55L372.78 155.56L371.11 155.57L367.99 155.6L364.92 155.64L359.51 155.81L356.9 155.9L352.22 156.21L349.96 156.38L345.8 156.85L343.77 157.11L339.9 157.77L337.99 158.14L334.19 159.03L332.29 159.51L328.34 160.65L322 162.69L318.77 163.78L313.05 165.97L310.3 167.09L305.35 169.41L302.96 170.59L298.58 173.14L292.41 177.35L291.55 178L289.61 179.61L288.6 180.46L286.47 182.38L284.3 184.37L279.89 188.77L278.82 189.86L276.8 192.01L275.82 193.07L274.08 195.06L273.25 196.03L271.89 197.74L270.43 199.85L270.08 200.44L269.48 201.35L269.19 201.76L268.71 202.34L268.48 202.59L268.14 202.85L267.99 202.94L267.8 202.9L267.73 202.84L267.7 202.49L267.71 202.28L267.87 201.65L267.98 201.3L268.33 200.4L268.53 199.92M308 148.08V147.96L308.48 147.3L308.79 146.91L309.79 145.82L310.34 145.23L311.72 143.84L314.08 141.59L315.78 140.02L319.68 137.08L321.72 135.65L326.3 132.99L328.67 131.7L333.88 129.33L336.57 128.18L342.4 126.11L345.39 125.11L351.81 123.35L355.09 122.5L362.07 121.05L365.63 120.36L373.15 119.23L385 117.91L386.1 117.81L388.59 117.65L389.89 117.57L392.75 117.44L394.22 117.38L397.43 117.29L399.07 117.25L402.58 117.2L404.38 117.17L408.17 117.15H410.1L414.14 117.16L418.24 117.19L427.05 117.33L431.54 117.42L440.95 117.7L445.71 117.85L455.49 118.26L485 119.91L489.17 120.2L497.06 120.72L500.94 120.97L508.27 121.42L511.87 121.64L518.68 122.01L522.02 122.19L528.34 122.5L531.44 122.64L537.3 122.87L540.17 122.98L545.6 123.14L548.27 123.21L553.31 123.3L555.78 123.34L560.46 123.35H562.76L567.11 123.3L569.25 123.26L573.31 123.14L577.31 122.99L584.56 122.49L588.08 122.2L594.6 121.4L603.83 119.89L606.54 119.37L611.54 118.19L613.98 117.57L618.48 116.2L620.67 115.48L624.69 113.89L626.64 113.06L630.22 111.23L631.96 110.29L635.14 108.2L636.68 107.12L639.49 104.76L640.85 103.54L643.33 100.89L646.71 96.5501L647.09 96.0002L647.73 95.0901L648.04 94.6602L648.53 93.9901L648.75 93.6902L649.1 93.2602L649.26 93.0801L649.49 92.8802L649.69 92.7401L649.77 93.0901L649.54 94.5002L649.11 96.4402L647.68 100.37L646.88 102.33L644.78 106.22L643.65 108.16L640.95 111.94L639.54 113.81L636.32 117.39L634.66 119.14L631.02 122.44L629.15 124.04L625.15 126.96L623.12 128.37L618.85 130.83L612.24 133.91L610.26 134.69L606.17 136.09L604.1 136.76L599.81 137.95L597.64 138.52L593.11 139.51L590.82 139.98L586.03 140.77L583.6 141.15L578.52 141.74L575.94 142.02L570.52 142.43L567.77 142.61L562 142.84L552.9 142.98H550.18L545.23 142.95L542.8 142.92L538.09 142.81L535.72 142.74L530.81 142.51L528.29 142.38L522.74 142L521.29 141.9L518.2 141.66L516.62 141.54L513.23 141.25L511.48 141.1L507.72 140.76L505.79 140.59L501.62 140.2L499.47 140L494.82 139.55L492.43 139.31L487.26 138.8L484.6 138.54L478.85 137.96L469.5 137.01L466.35 136.69L460.47 136.1L457.6 135.81L452.26 135.29L449.65 135.03L444.8 134.56L442.43 134.33L438.01 133.91L435.86 133.71L431.84 133.35L429.87 133.18L426.19 132.86L424.39 132.71L421.01 132.44L419.36 132.32L416.23 132.09L413.16 131.87L407.58 131.56L404.85 131.42L399.66 131.22L397.08 131.14L391.92 131.05L383.8 131H379.5L371.46 131.22L367.53 131.37L360.21 131.9L356.64 132.2L349.99 133.05L346.75 133.51L340.73 134.68L337.79 135.3L332.34 136.81L329.68 137.61L324.76 139.46L322.36 140.43L317.92 142.65L311.75 146.38L311.23 146.73L310.29 147.3L309.85 147.57L309.1 147.93L308.76 148.09L308.3 148.21L308.11 148.24M582.5 111.07L575.5 110.5L581.18 109.32L582.04 109.14L583.95 108.63L584.94 108.35L587.04 107.66L589.18 106.93L593.76 105.06L596.05 104.07L600.55 101.85L606.64 98.3701L608.27 97.3301L611.36 94.9702L612.88 93.7502L615.73 91.0702L617.13 89.7002L619.71 86.7401L620.97 85.2302L623.25 82.0402L624.35 80.4301L626.3 77.0501L627.24 75.3401L628.82 71.8301L629.57 70.0602L630.76 66.4502L632.07 60.9802L632.5 58.6201L632.74 53.9102L632.76 51.5602L632.25 46.9402L631.9 44.6501L630.67 40.2002L629.96 38.0102L628.05 33.8202L627.02 31.7701L624.48 27.9301L623.14 26.0602L620.01 22.6602L618.37 21.0201L614.7 18.1201L608.62 14.4601L606.57 13.4502L602.43 11.8902L600.37 11.2002L596.23 10.2902L594.17 9.92017L590.05 9.66016L583.91 10.0102L582.12 10.2602L579.03 11.0002L577.55 11.4301L574.85 12.6402L573.53 13.3202L570.91 15.1702L566.75 18.8202L566.1 19.4502L564.91 20.5501L564.34 21.0602L563.4 21.8401L562.96 22.1902L562.37 22.5901L562 22.6501V22.5402L562.2 21.9202L562.33 21.5602L562.75 20.5201L564.55 16.4802L565.13 15.2602L566.52 13.0102L567.25 11.9202L568.94 9.93015L569.82 8.98016L571.8 7.27014L572.82 6.45016L575.09 5.01016L576.25 4.33014L578.8 3.18015L580.1 2.64017L582.92 1.77014L584.36 1.38016L587.43 0.80014L592.34 0.260162L593.94 0.160156L597.12 0.190155L598.7 0.240143L601.84 0.57016L603.4 0.770142L606.48 1.37015L608.01 1.71014L611.01 2.58014L612.5 3.05014L615.42 4.18015L616.86 4.78015L619.66 6.15015L621.05 6.87015L623.73 8.47015L625.06 9.30014L627.6 11.1201L628.85 12.0602L631.23 14.0901L632.4 15.1302L634.6 17.3502L635.68 18.4802L637.7 20.8802L638.68 22.1002L640.48 24.6702L641.36 25.9702L642.94 28.6902L643.7 30.0702L645.03 32.9402L645.67 34.3902L646.74 37.3802L648.05 42.0002L648.39 43.4601L648.84 46.5402L649.04 48.1002L649.21 51.3202L649.27 52.9402L649.17 56.2401L649.09 57.9001L648.72 61.2101L648.51 62.8601L647.88 66.1101L647.54 67.7302L646.67 70.8601L646.2 72.4102L645.09 75.3502L643.17 79.4802L642.8 80.1602L641.59 81.9901L640.92 82.9601L639.25 85.1402L633.59 91.7701L632.18 93.2502L629.76 95.6002L628.57 96.7002L626.25 98.5201L625.06 99.3902L622.41 101L617.59 103.54L615.94 104.34L612.8 105.76L611.25 106.43L608.28 107.58L605.33 108.67L599.71 110.1L596.92 110.7L591.32 111.22L588.48 111.38M500.02 92.0402L498.81 91.6201L496.76 90.7101L495.8 90.2401L494.25 89.2101L493.54 88.6702L492.48 87.4702L492.01 86.8502L491.43 85.4702L491.2 84.7502L491.09 83.1501L491.1 82.3202L491.45 80.4702L491.68 79.5102L492.48 77.3802L494.17 73.8401L495.23 71.8401L498.03 68.0602L499.53 66.2101L503.03 62.7902L504.84 61.1501L508.81 58.2202L510.84 56.8301L515.07 54.5102L517.2 53.4301L521.46 51.8202L523.58 51.1101L527.65 50.3202L528.65 50.1801L530.57 50.0702L531.52 50.0402L533.32 50.1801L534.2 50.2802L535.85 50.6702L538.13 51.5702L539.15 52.0901L540.79 53.8401L541.55 54.8102L542.67 57.2902L543.17 58.6002L543.77 61.5901L544.01 63.1402L544.09 66.4402L544.07 68.1002L543.64 71.5002L543.36 73.1902L542.42 76.4702L541.89 78.0702L540.43 81.0201L537.69 84.8502L536.78 85.8202L534.48 87.5602L533.26 88.3902L530.42 89.8301L528.95 90.5102L525.73 91.6201L524.08 92.1402L520.6 92.9001L518.85 93.2302L515.26 93.6201L513.47 93.7602L509.91 93.7401L508.15 93.6801L504.76 93.2302L503.1 92.9502M570.36 81.5201L569.05 81.2302L566.63 80.5102L565.47 80.1302L563.36 79.2401L562.34 78.7802L560.57 77.7502L559.72 77.2202L558.31 76.0801L557.65 75.4901L556.62 74.2502L556.16 73.6201L555.55 72.3102L555.3 71.6501L555.13 70.3102L555.42 68.2602L555.55 67.8502L556.1 66.8802L556.42 66.3802L557.3 65.2602L558.24 64.1101L560.83 61.6402L562.19 60.4102L565.18 58.1402L569.53 55.5302L571.22 54.7302L574.41 53.5602L575.98 53.0402L578.95 52.4301L580.41 52.1902L583.15 52.1501L584.5 52.2002L587.03 52.7202L588.27 53.0602L590.61 54.1602L591.75 54.7802L593.89 56.4601L594.94 57.3701L596.9 59.6201L599.64 63.6501L600.39 64.9402L601.26 67.1902L601.59 68.2802L601.58 70.2902L601.47 71.2802L600.58 73.2302L598.21 76.2902L597.62 76.9001L596.07 78.0201L595.24 78.5501L593.28 79.4901L592.25 79.9402L589.96 80.6801L588.78 81.0302L586.25 81.5702L583.69 82.0501L578.25 82.3102H576.89L574.22 82.1201L572.89 81.9901L570.36 81.5201Z" fill="#FEFCFD"/>
</svg>
